<svg width="32" height="32" viewBox="0 0 32 32" fill="none" xmlns="http://www.w3.org/2000/svg">
<path d="M16 0C7.1783 0 0 7.17675 0 16C0 24.8233 7.1783 32 16 32C24.8217 32 32 24.8233 32 16C32 7.17675 24.8217 0 16 0ZM16 30.9343C7.76601 30.9343 1.06766 24.2345 1.06766 16C1.06766 7.7655 7.76601 1.06574 16 1.06574C24.234 1.06574 30.9323 7.7655 30.9323 16C30.9323 24.2345 24.234 30.9343 16 30.9343Z" fill="black"/>
<path d="M19.4927 7.01907H16.8305C13.4399 6.98515 13.0069 9.08369 13.0069 11.3549V13.0064H11.5101C11.4425 12.9973 11.3737 13.004 11.309 13.0259C11.2444 13.0478 11.1856 13.0842 11.1374 13.1325C11.0891 13.1808 11.0526 13.2395 11.0308 13.3042C11.0089 13.3688 11.0022 13.4376 11.0112 13.5053V16.4989C11.0022 16.5666 11.0089 16.6354 11.0308 16.7001C11.0526 16.7647 11.0891 16.8235 11.1374 16.8717C11.1856 16.92 11.2444 16.9565 11.309 16.9783C11.3737 17.0002 11.4425 17.0069 11.5101 16.9979H13.0069V24.482C12.9986 24.5497 13.0058 24.6185 13.0282 24.6831C13.0505 24.7476 13.0873 24.8062 13.1357 24.8543C13.1841 24.9024 13.2429 24.9389 13.3076 24.9608C13.3722 24.9828 13.441 24.9896 13.5088 24.9809H16.5571C16.8515 25.0148 17.0899 24.7763 16.9961 24.482L16.9981 16.9979H19.4927C19.5603 17.0069 19.6292 17.0002 19.6938 16.9783C19.7584 16.9565 19.8172 16.92 19.8654 16.8717C19.9137 16.8235 19.9502 16.7647 19.9721 16.7001C19.9939 16.6354 20.0006 16.5666 19.9916 16.4989V13.5053C20.0006 13.4376 19.9939 13.3688 19.9721 13.3042C19.9502 13.2395 19.9137 13.1808 19.8654 13.1325C19.8172 13.0842 19.7584 13.0478 19.6938 13.0259C19.6292 13.004 19.5603 12.9973 19.4927 13.0064H16.9951L16.9981 11.5095C17.0949 10.8719 17.0949 10.9757 17.6866 11.0106H19.4717C19.6104 10.9797 19.7581 10.9966 19.8619 10.8958C19.9656 10.7951 20.0255 10.6573 19.9906 10.5117V7.51801C19.9998 7.45042 19.9933 7.3816 19.9715 7.31694C19.9498 7.25228 19.9134 7.19351 19.8652 7.14522C19.817 7.09693 19.7583 7.06042 19.6937 7.03854C19.6291 7.01666 19.5603 7.01 19.4927 7.01907V7.01907ZM18.9588 9.95683L17.7076 9.90893C16.158 9.90893 16.0283 10.7501 16.0283 11.6113L16.0243 13.5033C16.0241 13.5734 16.0378 13.6428 16.0645 13.7075C16.0913 13.7723 16.1305 13.8311 16.18 13.8807C16.2295 13.9303 16.2883 13.9697 16.353 13.9965C16.4177 14.0233 16.487 14.0372 16.5571 14.0372H18.9938V15.9651H16.5591C16.4177 15.9651 16.2821 16.0212 16.182 16.1211C16.0819 16.221 16.0255 16.3565 16.0253 16.4979L16.0243 23.983H14.0047V16.4989C14.0047 16.2046 13.8041 15.9661 13.5088 15.9661H12.0091V14.0382H13.5088C13.5788 14.0383 13.6481 14.0246 13.7128 13.9979C13.7776 13.9712 13.8364 13.9319 13.8859 13.8825C13.9857 13.7817 14.0037 13.646 14.0037 13.5043V11.3539C14.0037 9.11662 14.4557 8.05088 16.8295 8.05088H18.9579V9.95683H18.9588Z" fill="black"/>
</svg>
