<svg width="42" height="30" viewBox="0 0 42 30" fill="none" xmlns="http://www.w3.org/2000/svg">
<path d="M40.1122 24.5837C39.8844 25.4304 39.4381 26.2025 38.818 26.8225C38.198 27.4425 37.426 27.8888 36.5792 28.1167C34.2652 29.0107 11.8472 29.4487 5.34325 28.0917C4.49639 27.8637 3.72429 27.4173 3.10425 26.7971C2.4842 26.1769 2.03798 25.4046 1.81024 24.5577C0.765245 19.9747 0.686245 10.0667 1.83624 5.38072C2.06413 4.53399 2.51042 3.76197 3.13046 3.14193C3.75049 2.5219 4.52251 2.0756 5.36925 1.84772C9.95225 0.792717 31.7402 0.644717 36.6052 1.84772C37.452 2.0756 38.224 2.5219 38.844 3.14193C39.4641 3.76197 39.9104 4.53399 40.1382 5.38072C41.2522 10.3737 41.3312 19.6677 40.1122 24.5837V24.5837Z" stroke="black" stroke-linecap="round" stroke-linejoin="round"/>
<path d="M27.5671 14.9826L17.1201 20.9736V8.99163L27.5671 14.9826Z" stroke="black" stroke-linecap="round" stroke-linejoin="round"/>
</svg>
